<?xml version="1.0" encoding="UTF-8"?>
<svg xmlns="http://www.w3.org/2000/svg" width="228.613" height="143.567" viewBox="0 0 228.613 143.567">
  <g transform="translate(54.177 0)">
    <path d="M1782.229,185.651c-2.622,7.656-2.329,7-7.239,29.872-.9,4.225.693,10.854,4.5,12.857s10.57-.2,12.832-3.874l3.64-34.523Z" transform="translate(-1744.05 -102.663)" fill="#ffbf9d"></path>
    <path d="M1790.327,240.637h57.664c-.013-.126-.027-.251-.038-.367l-2-18.51-.109-18.192.075-1.787,18.459-4.308s-3.623-11.939-6.946-24.771c-1.921-7.414-8.307-11.137-9.853-11.939l-.342-.159-17.766-7.514c-3.59,3.824-8.817,6.9-13.852,5.427a15.77,15.77,0,0,1-7.313-5.009l-11.964,4.116a15.59,15.59,0,0,0-8.282,6.679c-2.5,4.467-10.511,24.8-10.678,25.214l14.828,1.327S1790.359,224.641,1790.327,240.637Z" transform="translate(-1744.485 -97.287)" fill="#008fbf"></path>
    <g transform="translate(0 8.196)">
      <path d="M1776.611,135.715l-5.519-.668a21.214,21.214,0,1,1,5.46-5.285h0Z" transform="translate(-1737.998 -96.088)" fill="#fff"></path>
      <path d="M1776.593,135.694v-1.561c0-1.019-.05-2.5-.083-4.4l.125.058h0a.076.076,0,0,1-.107,0l0,0a.091.091,0,0,1,0-.1,21.017,21.017,0,0,0,3.715-9.434,21.391,21.391,0,0,0-.175-6.679,21.173,21.173,0,0,0-2.73-7.072,21.56,21.56,0,0,0-5.719-6.12,20.537,20.537,0,0,0-8.3-3.582,21.42,21.42,0,0,0-9.6.409,20.573,20.573,0,0,0-8.75,5.009,21.144,21.144,0,0,0-3.34,3.982c-.426.743-.835,1.478-1.236,2.238l-.5,1.169-.242.576-.192.6a21.534,21.534,0,0,0-.835,9.668,20.516,20.516,0,0,0,3.273,8.524,21.106,21.106,0,0,0,12.958,9l1.753.3c.576.092,1.152.1,1.67.159a18.911,18.911,0,0,0,3.239-.067,21.107,21.107,0,0,0,9.535-3.34h.05l4.066.534,1.069.15.376.058h-.351l-1.052-.109-4.124-.451h.05a21.065,21.065,0,0,1-9.593,3.5,18.491,18.491,0,0,1-3.281.083c-.568-.05-1.144-.058-1.728-.142l-1.778-.3a21.347,21.347,0,0,1-7.13-3.022,21.928,21.928,0,0,1-6.078-6.162,20.784,20.784,0,0,1-3.339-8.658,21.827,21.827,0,0,1,.835-9.843l.192-.609.25-.593c.175-.392.342-.835.509-1.186.376-.785.835-1.528,1.252-2.288a21.894,21.894,0,0,1,3.34-4.058,20.866,20.866,0,0,1,8.9-5.059,21.706,21.706,0,0,1,9.877-.442,20.737,20.737,0,0,1,8.432,3.665,21.719,21.719,0,0,1,5.761,6.228,21.315,21.315,0,0,1,2.747,7.188,21.875,21.875,0,0,1,.142,6.771,21.118,21.118,0,0,1-3.832,9.493l-.117-.1h0a.075.075,0,0,1,.106,0l0,0a.058.058,0,0,1,0,.05v5.585C1776.6,135.619,1776.593,135.694,1776.593,135.694Z" transform="translate(-1737.98 -96.067)" fill="#263238"></path>
      <path d="M1752.349,121.457l2.647-2.839,5.46,4.533,10.06-10.361,2.638,2.655-12.907,13.016Z" transform="translate(-1740.352 -98.829)" fill="#b4bc00"></path>
    </g>
    <path d="M1807.761,108.486a16.021,16.021,0,0,1,17-13.534l.835.058c8.883,1.169,12.849,9.376,11.438,18.226l-3.1,31.409-.15,6.487-21.165,1.92.459-13.709s-8.483-1.954-7.965-10.536C1805.332,124.658,1806.576,116.159,1807.761,108.486Z" transform="translate(-1749.06 -87.681)" fill="#ffbf9d"></path>
    <path d="M1814.569,147.616a20.792,20.792,0,0,0,11.48-2.5s-2.98,6.195-11.48,4.8Z" transform="translate(-1750.625 -95.969)" fill="#ff9a6c"></path>
    <path d="M1812.268,121.217a1.227,1.227,0,0,0,1.094,1.319,1.185,1.185,0,0,0,1.343-1l0-.007a1.227,1.227,0,0,0-1.094-1.327,1.185,1.185,0,0,0-1.343,1Z" transform="translate(-1750.245 -91.854)" fill="#263238"></path>
    <path d="M1810.126,116.138c.142.167,1.119-.451,2.438-.351s2.238.835,2.388.676-.058-.367-.451-.7a3.4,3.4,0,0,0-1.9-.743,3.338,3.338,0,0,0-1.954.476C1810.218,115.779,1810.059,116.063,1810.126,116.138Z" transform="translate(-1749.889 -91)" fill="#263238"></path>
    <path d="M1827.068,122.627a1.219,1.219,0,0,0,1.085,1.319,1.169,1.169,0,0,0,1.338-.97l.006-.04a1.236,1.236,0,0,0-1.085-1.327,1.17,1.17,0,0,0-1.338.971C1827.071,122.595,1827.07,122.611,1827.068,122.627Z" transform="translate(-1752.688 -92.086)" fill="#263238"></path>
    <path d="M1825.626,117.559c.142.175,1.119-.442,2.438-.351s2.238.835,2.388.685-.058-.367-.459-.71a3.34,3.34,0,0,0-1.9-.735,3.192,3.192,0,0,0-1.953.476C1825.718,117.209,1825.559,117.509,1825.626,117.559Z" transform="translate(-1752.448 -91.235)" fill="#263238"></path>
    <path d="M1818.4,126.9a8.891,8.891,0,0,0-2.112-.543c-.334-.058-.651-.15-.693-.384a1.735,1.735,0,0,1,.3-.977l1.186-2.5a41.454,41.454,0,0,0,2.722-6.546,44.978,44.978,0,0,0-3.248,6.312c-.392.835-.776,1.67-1.135,2.5a1.948,1.948,0,0,0-.276,1.311.832.832,0,0,0,.518.526,2.351,2.351,0,0,0,.568.125A8.609,8.609,0,0,0,1818.4,126.9Z" transform="translate(-1750.717 -91.154)" fill="#263238"></path>
    <path d="M1822.729,130.5c-.209,0-.317,1.4-1.611,2.329s-2.813.66-2.839.835.317.3.96.367a3.575,3.575,0,0,0,2.363-.635,3.1,3.1,0,0,0,1.261-1.962C1822.963,130.868,1822.829,130.5,1822.729,130.5Z" transform="translate(-1751.237 -93.557)" fill="#263238"></path>
    <path d="M1825.668,111.41c.109.367,1.436.292,2.964.593s2.755.835,2.989.5c.1-.15-.092-.5-.576-.885a5.285,5.285,0,0,0-4.525-.835C1825.935,110.967,1825.626,111.235,1825.668,111.41Z" transform="translate(-1752.457 -90.27)" fill="#263238"></path>
    <path d="M1811.044,111.593c.209.317,1.136.075,2.229.134s2,.351,2.238.05c.109-.142,0-.451-.4-.768a3.272,3.272,0,0,0-3.607-.15C1811.1,111.142,1810.952,111.442,1811.044,111.593Z" transform="translate(-1750.039 -90.236)" fill="#263238"></path>
    <path d="M1840.825,126.309a2.32,2.32,0,0,1,2.547-2.07c.041,0,.083.009.124.016,1.595.267,3.34,1.3,2.956,4.6-.609,5.844-6.362,4.024-6.354,3.857S1840.542,128.764,1840.825,126.309Z" transform="translate(-1754.84 -92.521)" fill="#ffbf9d"></path>
    <path d="M1841.907,131.035a1.778,1.778,0,0,0,.259.184,1.024,1.024,0,0,0,.76.092,2.506,2.506,0,0,0,1.4-2.137,3.485,3.485,0,0,0-.133-1.486,1.185,1.185,0,0,0-.685-.835.534.534,0,0,0-.635.217c-.092.159-.067.276-.1.284s-.117-.109,0-.342a.6.6,0,0,1,.267-.342.759.759,0,0,1,.584-.092,1.437,1.437,0,0,1,.927.952,3.441,3.441,0,0,1,.175,1.67,2.587,2.587,0,0,1-1.745,2.363,1.078,1.078,0,0,1-.918-.25C1841.9,131.185,1841.882,131.052,1841.907,131.035Z" transform="translate(-1755.137 -92.905)" fill="#ff9a6c"></path>
    <path d="M1839.285,114.086c-.484,1.67-.309,4.467-1.8,4.083-2.98-.751-2.263,5.352-3.69,4.751s-2.655-2.321-2.747-6.078c-.109-4.759,1.8-8.2-.067-13.659a7.224,7.224,0,0,0-6.028-3.732,7.345,7.345,0,0,0-6.32,3.34c-.267-1.67-1.077-4.174-2.555-5.009a4.307,4.307,0,0,0-4.734.392,3.5,3.5,0,0,0-.618,4.55,1.669,1.669,0,0,1-1.87-.668,2.805,2.805,0,0,0,.743,2.137,2.6,2.6,0,0,1-1.511-1.052c.15.693.292,1.378.443,2.062-2.5.067-4.959-2.363-5.661-4.517a11.177,11.177,0,0,1,1.595-9.5,10.292,10.292,0,0,1,8.549-4.934,7.887,7.887,0,0,1,7.648,4.834c2.237-1.578,6.763-2.129,9.251-.994a8.043,8.043,0,0,1,4.583,6.37,4.792,4.792,0,0,1,4.742.918l.317.276a7.165,7.165,0,0,1,2.079,6.6c-.184.96-.518,1.945-.71,2.713C1840.345,109.277,1839.285,114.086,1839.285,114.086Z" transform="translate(-1748.616 -86.251)" fill="#263238"></path>
    <path d="M1809.32,103.329s-.075,0-.2-.159a3.609,3.609,0,0,1-.493-.534,5.005,5.005,0,0,1-.985-2.5,4.755,4.755,0,0,1,1.169-3.749,5.127,5.127,0,0,1,4.475-1.67,5.752,5.752,0,0,1,2.371.935,7.7,7.7,0,0,1,1.778,1.57,9.33,9.33,0,0,1,2.087,6.22,1.942,1.942,0,0,1-.075.726,1.055,1.055,0,0,1-.05.25,11.222,11.222,0,0,0-.342-3.6,9.43,9.43,0,0,0-1.8-3.448,6.548,6.548,0,0,0-3.974-2.421,4.933,4.933,0,0,0-4.266,1.595,4.613,4.613,0,0,0-1.16,3.573,5.068,5.068,0,0,0,.885,2.446C1809.086,103.062,1809.337,103.312,1809.32,103.329Z" transform="translate(-1749.475 -87.641)" fill="#455a64"></path>
    <path d="M1807.8,105.6a1.387,1.387,0,0,1-.175-.284c-.109-.192-.267-.476-.459-.835a18.82,18.82,0,0,1-1.378-3.273,9.29,9.29,0,0,1-.384-2.43,6.665,6.665,0,0,1,.509-2.78,5.442,5.442,0,0,1,2.012-2.4,6.575,6.575,0,0,1,3.181-1.052,8.127,8.127,0,0,1,3.34.526,10.491,10.491,0,0,1,2.713,1.553,8.048,8.048,0,0,1,2.964,4.291,5.846,5.846,0,0,1-.175,3.523,4.247,4.247,0,0,1-.434.835,1.12,1.12,0,0,1-.209.267,6.867,6.867,0,0,0,.551-1.161,5.926,5.926,0,0,0,.092-3.44,8,8,0,0,0-2.939-4.174,8.935,8.935,0,0,0-5.844-2,6.335,6.335,0,0,0-3.064,1.01,5.246,5.246,0,0,0-1.929,2.271,6.582,6.582,0,0,0-.509,2.688,9.03,9.03,0,0,0,.342,2.379,19.7,19.7,0,0,0,1.294,3.273l.417.835A1.608,1.608,0,0,1,1807.8,105.6Z" transform="translate(-1749.112 -87.289)" fill="#455a64"></path>
    <path d="M1844.1,112.87a10.974,10.974,0,0,0,1.261-1.286,8.855,8.855,0,0,0,1.87-3.824,8.725,8.725,0,0,0-.2-4.25c-.317-1.06-.676-1.67-.635-1.67a1.692,1.692,0,0,1,.275.4,7.9,7.9,0,0,1,.534,1.219,8.259,8.259,0,0,1-1.712,8.249,7.925,7.925,0,0,1-.977.91A1.6,1.6,0,0,1,1844.1,112.87Z" transform="translate(-1755.501 -88.825)" fill="#455a64"></path>
    <path d="M1837.709,112.947a5.869,5.869,0,0,0,.76-.451,4.279,4.279,0,0,0,1.478-1.778l.242-.559-.05.609c-.075.835-.159,1.778-.251,2.805l-.192-.117a7.683,7.683,0,0,0,3.223-4.959,8,8,0,0,0,0-2.755,11.093,11.093,0,0,0-.835-2.421,1.006,1.006,0,0,1,.109.142,4.239,4.239,0,0,1,.259.451,7.343,7.343,0,0,1,.643,1.8,7.7,7.7,0,0,1-3.256,7.957l-.217.142v-.259c.109-1.027.209-1.979.3-2.8l.192.05a4.262,4.262,0,0,1-1.6,1.8,4.814,4.814,0,0,1-.593.292A.633.633,0,0,1,1837.709,112.947Z" transform="translate(-1754.446 -89.069)" fill="#455a64"></path>
    <path d="M1833.671,99.482a5.562,5.562,0,0,0-1.353-1.67,4.922,4.922,0,0,0-2.112-.977,5.167,5.167,0,0,0-2.814.25,6.042,6.042,0,0,0-2.363,1.6,7.233,7.233,0,0,0-1.277,1.979,13.566,13.566,0,0,0-.635,2.1,1.838,1.838,0,0,1,.042-.593,7.428,7.428,0,0,1,.426-1.578,7.168,7.168,0,0,1,1.261-2.071,6.173,6.173,0,0,1,2.455-1.67,5.35,5.35,0,0,1,2.955-.242,4.949,4.949,0,0,1,2.179,1.069,4.45,4.45,0,0,1,1.027,1.277,4.077,4.077,0,0,1,.175.409C1833.671,99.424,1833.679,99.474,1833.671,99.482Z" transform="translate(-1752.035 -87.944)" fill="#455a64"></path>
    <path d="M1832.3,94.527a8.194,8.194,0,0,0-1.611-.626,5.912,5.912,0,0,0-4.024.568,7.3,7.3,0,0,0-2.847,2.964c-.509.952-.676,1.611-.718,1.595a1.443,1.443,0,0,1,.083-.468,7.232,7.232,0,0,1,.468-1.211,7.1,7.1,0,0,1,2.889-3.106,5.775,5.775,0,0,1,4.174-.518,4.492,4.492,0,0,1,1.194.509A1.509,1.509,0,0,1,1832.3,94.527Z" transform="translate(-1752.033 -87.456)" fill="#455a64"></path>
    <path d="M1795.382,176.9c.075,0-.317,11.471-.877,25.615s-1.077,25.615-1.127,25.615.317-11.471.835-25.623S1795.307,176.893,1795.382,176.9Z" transform="translate(-1747.126 -101.218)" fill="#263238"></path>
    <path d="M1857.074,180.721c-.125,0,.242,10.186.835,22.734s1.177,22.717,1.311,22.709-.242-10.177-.835-22.734S1857.208,180.721,1857.074,180.721Z" transform="translate(-1757.639 -101.849)" fill="#263238"></path>
    <path d="M1874.926,213.794c-.6-4.517-1.1-8.508-1.1-8.508l-14.761,3.431.635,2.379-11.413-11.6-1.812.159-5.744,5.969s5.009,10.578,7.923,14.694c3.791,5.36,9.743,13.525,17.9,12.841C1874.091,232.529,1876,221.893,1874.926,213.794Z" transform="translate(-1754.944 -104.949)" fill="#ffbf9d"></path>
    <path d="M1870.705,218.849a12.535,12.535,0,0,0-3.239-2.981,13.117,13.117,0,0,0-3.857-2.137c-.067.125,1.67,1.11,3.573,2.5S1870.614,218.949,1870.705,218.849Z" transform="translate(-1758.722 -107.299)" fill="#ff9a6c"></path>
    <path d="M1825.909,180.869l5.076-2.588,6.579,2.087,3.256,3.006L1845.83,196l4.016,5.084-7.088,9.184-4.483-8.182s-3.8-1.67-5.327-4.058-2.2-3.707-2.2-3.707-2.2-1.052-2.6-2.071a4.85,4.85,0,0,1-.384-1.8l1.11-1.628a4.081,4.081,0,0,1,.334-2.071,2.025,2.025,0,0,1,.835-.693s-.326-1.369.184-1.862a16.1,16.1,0,0,1,3.039-1.386h0l-2.213-1.261S1826.184,183.115,1825.909,180.869Z" transform="translate(-1752.497 -101.446)" fill="#ffbf9d"></path>
    <path d="M1834.269,186.859c0,.067-.776.083-1.67.284s-1.67.484-1.67.426a3.99,3.99,0,0,1,1.67-.635A3.774,3.774,0,0,1,1834.269,186.859Z" transform="translate(-1753.326 -102.852)" fill="#ff9a6c"></path>
    <path d="M1832.531,190.241a13.4,13.4,0,0,1-1.469.192,12.259,12.259,0,0,1-1.453.25,3.2,3.2,0,0,1,1.419-.468A3.334,3.334,0,0,1,1832.531,190.241Z" transform="translate(-1753.108 -103.404)" fill="#ff9a6c"></path>
    <path d="M1830.521,195.325c-.058,0-.1-.292-.092-.651s.059-.643.117-.643.1.292.1.651S1830.579,195.325,1830.521,195.325Z" transform="translate(-1753.243 -104.046)" fill="#ff9a6c"></path>
    <path d="M1831.405,196.839a2.842,2.842,0,0,0-.468-1.169,3.174,3.174,0,0,0-1.019-.743,1.032,1.032,0,0,1,.4,0,1.677,1.677,0,0,1,.835.568,1.739,1.739,0,0,1,.359.9C1831.489,196.689,1831.43,196.839,1831.405,196.839Z" transform="translate(-1753.159 -104.191)" fill="#ff9a6c"></path>
    <path d="M1836.036,192.125a3.1,3.1,0,0,0-.885-.835,3.338,3.338,0,0,0-1.2-.3.818.818,0,0,1,.384-.109,1.738,1.738,0,0,1,1.6.893C1836.053,191.966,1836.061,192.116,1836.036,192.125Z" transform="translate(-1753.825 -103.526)" fill="#ff9a6c"></path>
    <path d="M1838.834,188.755a3.083,3.083,0,0,0-.835-.835,3.885,3.885,0,0,0-1.11-.384.8.8,0,0,1,.367-.075,1.777,1.777,0,0,1,.835.276,1.677,1.677,0,0,1,.609.66C1838.851,188.6,1838.859,188.747,1838.834,188.755Z" transform="translate(-1754.31 -102.961)" fill="#ff9a6c"></path>
    <path d="M1840.76,186.927a2.185,2.185,0,0,0-.058-.434,2,2,0,0,0-.367-.927,2.024,2.024,0,0,0-.785-.626c-.242-.109-.409-.142-.4-.175s.184-.05.451,0a1.756,1.756,0,0,1,.91.635,1.8,1.8,0,0,1,.342,1.052C1840.852,186.768,1840.785,186.935,1840.76,186.927Z" transform="translate(-1754.683 -102.511)" fill="#ff9a6c"></path>
    <path d="M1837.586,183.394c0,.075-1.06.092-2.338.284a21.906,21.906,0,0,0-2.279.593,5.259,5.259,0,0,1,2.246-.835,10.159,10.159,0,0,1,1.67-.125A2.015,2.015,0,0,1,1837.586,183.394Z" transform="translate(-1753.663 -102.276)" fill="#ff9a6c"></path>
    <g transform="translate(46.445 102.784)" opacity="0.3">
      <path d="M1816.644,216.2a9.006,9.006,0,0,0-1.252-4.174c-1.486-2.1-4.4-2.5-6.955-2.413s-5.226.626-7.631-.25l-7.2,21.357a10.679,10.679,0,0,0,6.487-4.751c.735-1.194,1.269-2.58,2.38-3.431,1.536-1.177,3.657-1.01,5.594-1.027a22.54,22.54,0,0,0,5.97-.877,3.985,3.985,0,0,0,2.2-1.252A4.284,4.284,0,0,0,1816.644,216.2Z" transform="translate(-1793.609 -209.361)"></path>
    </g>
    <path d="M1799,186.955l2.237,23.769a3.338,3.338,0,0,0,1.469,2.73l14.419-.3a5.74,5.74,0,0,0,1.1-4.041l-1.6-22.751c-.092-1.369-.6-2.354-1.219-2.371l-15.187-.351C1799.446,183.624,1798.845,185.261,1799,186.955Z" transform="translate(-1748.051 -102.331)" fill="#263238"></path>
    <path d="M1796.416,192.6a2.079,2.079,0,0,1,.05-2.571,3.19,3.19,0,0,1,2.5-1.1,7,7,0,0,1,2.705.626,17.693,17.693,0,0,1,2.989,1.611,2.914,2.914,0,0,1,1.494,1.828c.117.835-.776,1.67-1.469,1.277a3.419,3.419,0,0,1,1.937,2.421c.125,1.01-.434,1.545-1.419,1.812a1.537,1.537,0,0,1,.835,1.979,1.753,1.753,0,0,1-2.213.618,5.081,5.081,0,0,1-1.879-1.67,5.773,5.773,0,0,1,.259,3.623c-2.154-.835-4.275-3.181-3.632-5.452a3.08,3.08,0,0,1-.835-3.682,3.012,3.012,0,0,1-1.737-2.563" transform="translate(-1747.558 -103.204)" fill="#ffbf9d"></path>
    <path d="M1793.274,190.851l-.175,10.161-2.638,3.966-12.081,10.812s1.787,14.686,7.247,13.083,6.771-2.647,10.019-8.566c1.72-3.181,2.789-8.349,3.782-11.3.584-1.737.075-7.33.075-7.33Z" transform="translate(-1744.65 -103.521)" fill="#ffbf9d"></path>
    <path d="M1805.7,199.952a7.623,7.623,0,0,1-.927-.743,6.316,6.316,0,0,0-2.438-1.319,3.406,3.406,0,0,0-1.5,0,2.752,2.752,0,0,0-1.11.526,3.592,3.592,0,0,0-.735.877.8.8,0,0,1,.092-.309,2.153,2.153,0,0,1,.534-.7,2.809,2.809,0,0,1,1.169-.609,3.467,3.467,0,0,1,1.6,0,5.847,5.847,0,0,1,2.5,1.428A4.664,4.664,0,0,1,1805.7,199.952Z" transform="translate(-1748.053 -104.632)" fill="#ff9a6c"></path>
    <path d="M1805.371,195.1a5.01,5.01,0,0,1-1.127-.5c-.334-.167-.735-.376-1.194-.559a10.454,10.454,0,0,0-1.553-.434,4.689,4.689,0,0,0-1.586-.058,2.932,2.932,0,0,0-1.177.484,3.022,3.022,0,0,0-.835.893.818.818,0,0,1,.1-.317,2.154,2.154,0,0,1,.584-.71,2.845,2.845,0,0,1,1.252-.559,4.322,4.322,0,0,1,1.67,0,8.913,8.913,0,0,1,1.586.468,10.68,10.68,0,0,1,1.2.609A9.449,9.449,0,0,1,1805.371,195.1Z" transform="translate(-1747.873 -103.918)" fill="#ff9a6c"></path>
    <path d="M1779.83,223.578a9.7,9.7,0,0,1-.15-3.782,11.439,11.439,0,0,1,1.428-3.849,18.714,18.714,0,0,1,3.189-3.907c1.3-1.261,2.638-2.354,3.832-3.34a41.3,41.3,0,0,0,3.056-2.88,18.331,18.331,0,0,0,1.762-2.279,4.664,4.664,0,0,0,.5-.91,7.151,7.151,0,0,0-.626.835,21.869,21.869,0,0,1-1.845,2.112c-.835.835-1.879,1.787-3.089,2.8s-2.5,2.1-3.866,3.34a18.2,18.2,0,0,0-3.231,4.016,11.32,11.32,0,0,0-1.428,4.007,7.9,7.9,0,0,0,.1,2.839,5.3,5.3,0,0,0,.217.743A2,2,0,0,0,1779.83,223.578Z" transform="translate(-1744.798 -105.466)" fill="#ff9a6c"></path>
  </g>
  <g transform="translate(0 143.133)">
    <path d="M1901.7,257.907c0,.117-51.18.217-114.3.217s-114.311-.142-114.311-.217,51.17-.217,114.311-.217S1901.7,257.74,1901.7,257.907Z" transform="translate(-1673.089 -257.69)" fill="#263238"></path>
  </g>
</svg>
